<?xml version="1.0" encoding="utf-8"?>
<!-- Generator: Adobe Illustrator 16.0.0, SVG Export Plug-In . SVG Version: 6.00 Build 0)  -->
<!DOCTYPE svg PUBLIC "-//W3C//DTD SVG 1.1//EN" "http://www.w3.org/Graphics/SVG/1.1/DTD/svg11.dtd">
<svg version="1.1" id="Layer_1" xmlns="http://www.w3.org/2000/svg" xmlns:xlink="http://www.w3.org/1999/xlink" x="0px" y="0px"
	 width="147.451px" height="60.725px" viewBox="-1.333 -3.335 147.451 60.725"
	 enable-background="new -1.333 -3.335 147.451 60.725" xml:space="preserve">
<g>
	<path d="M47.28,18.089c-0.484,0.325-0.952,0.639-1.419,0.952c-0.162,0.108-0.332,0.203-0.484,0.324
		c-0.632,0.5-1.216,1.06-1.733,1.671c-0.823,0.974-1.502,2.052-1.995,3.245c-0.187,0.453-0.334,0.917-0.489,1.382
		c-0.157,0.472-0.201,0.964-0.349,1.437c-0.099,0.318-0.093,0.673-0.103,1.013c-0.012,0.407-0.119,0.799-0.111,1.21
		c0.009,0.534,0.18,1.056,0.107,1.594c0.142,0.344,0.09,0.721,0.187,1.074c0.095,0.344,0.195,0.69,0.271,1.037
		c0.079,0.354,0.287,0.662,0.302,1.03c0.342,0.673,0.606,1.382,1.009,2.029c0.235,0.378,0.483,0.753,0.709,1.14
		c0.154,0.263,0.384,0.481,0.583,0.718c0.17,0.2,0.394,0.349,0.511,0.604c0.049,0.108,0.157,0.229,0.265,0.265
		c0.181,0.06,0.281,0.196,0.391,0.318c0.325,0.359,0.719,0.63,1.103,0.911c0.466,0.345,0.964,0.645,1.479,0.908
		c0.446,0.228,0.888,0.46,1.36,0.626c0.027,0.009,0.045,0.044,0.074,0.07c-0.543,1.367-1.203,2.684-1.878,3.99
		c-0.273,0.529-0.579,1.041-0.885,1.552c-0.448,0.745-0.901,1.484-1.392,2.201c-0.35,0.512-0.691,1.028-1.062,1.526
		c-0.325,0.435-0.62,0.896-0.947,1.33c-0.167,0.221-0.372,0.414-0.542,0.637c-0.55,0.715-1.189,1.351-1.845,1.965
		c-0.589,0.551-1.229,1.055-1.923,1.452c-0.698,0.4-1.426,0.777-2.245,0.892c-0.19,0.154-0.433,0.03-0.622,0.106
		c-0.32,0.128-0.642,0.074-0.963,0.082c-0.199,0.006-0.397-0.03-0.597-0.048c-0.184-0.017-0.394,0.022-0.544-0.058
		c-0.179-0.094-0.402-0.01-0.545-0.18c-0.601-0.061-1.124-0.341-1.666-0.575c-0.794-0.342-1.565-0.742-2.387-1.017
		c-0.42-0.142-0.84-0.284-1.289-0.343c-0.401-0.056-0.805-0.128-1.202-0.201c-0.405-0.074-0.8-0.058-1.2-0.07
		c-0.396-0.014-0.792-0.013-1.188,0.002c-0.194,0.006-0.386,0.059-0.58,0.091c-0.192,0.032-0.41-0.083-0.578,0.097
		c-0.525-0.038-0.994,0.207-1.496,0.293c-0.244,0.044-0.484,0.132-0.713,0.229c-0.742,0.315-1.483,0.633-2.215,0.973
		c-0.263,0.12-0.534,0.244-0.816,0.325c-0.283,0.084-0.555,0.197-0.835,0.28c-0.302,0.09-0.648,0.027-0.947,0.121
		c-0.387,0.121-0.771,0.056-1.153,0.084c-0.508,0.037-0.995-0.117-1.485-0.208c-0.208-0.039-0.432-0.093-0.637-0.177
		c-0.202-0.085-0.403-0.177-0.6-0.272c-0.199-0.097-0.392-0.204-0.59-0.303c-0.468-0.236-0.882-0.557-1.318-0.848
		c-0.263-0.174-0.45-0.435-0.704-0.604c-0.304-0.206-0.538-0.474-0.793-0.727c-0.642-0.632-1.195-1.341-1.758-2.045
		c-0.505-0.632-0.975-1.285-1.431-1.95c-0.518-0.751-1.008-1.522-1.467-2.314c-0.28-0.489-0.57-0.977-0.838-1.477
		c-0.301-0.559-0.58-1.133-0.857-1.707c-0.2-0.412-0.399-0.825-0.567-1.251c-0.163-0.412-0.327-0.825-0.496-1.233
		c-0.334-0.81-0.63-1.629-0.875-2.468c-0.155-0.528-0.354-1.045-0.448-1.593c-0.076-0.439-0.25-0.861-0.324-1.302
		c-0.066-0.403-0.239-0.781-0.243-1.199c-0.001-0.147-0.06-0.293-0.09-0.44c-0.028-0.133,0.063-0.289-0.077-0.402
		c-0.017-0.015-0.015-0.057-0.018-0.085c-0.033-0.372-0.074-0.742-0.093-1.113c-0.009-0.202-0.134-0.372-0.105-0.587
		c0.026-0.194,0.052-0.404-0.086-0.586c-0.016-0.02-0.002-0.062-0.002-0.095c0-0.334,0.013-0.673-0.004-1.007
		c-0.019-0.341,0.031-0.674-0.072-1.023c-0.089-0.31-0.03-0.667-0.014-1.003c0.012-0.276,0.072-0.55,0.087-0.824
		c0.016-0.271-0.05-0.56,0.019-0.814c0.073-0.264,0.057-0.52,0.084-0.779c0.027-0.245,0.133-0.478,0.091-0.731
		c0.229-0.184-0.042-0.507,0.191-0.688c-0.021-0.205,0.055-0.392,0.084-0.587c0.043-0.287,0.118-0.558,0.199-0.832
		c0.162-0.542,0.29-1.095,0.483-1.624c0.224-0.609,0.477-1.213,0.783-1.787c0.225-0.421,0.5-0.813,0.732-1.231
		c0.331-0.601,0.804-1.098,1.179-1.668c0.009-0.012,0.022-0.022,0.033-0.035c0.438-0.473,0.837-0.988,1.32-1.409
		c0.574-0.5,1.127-1.03,1.765-1.466c0.433-0.294,0.875-0.586,1.311-0.878c0.438-0.291,0.936-0.491,1.405-0.737
		c0.313-0.166,0.658-0.249,0.984-0.381c0.329-0.132,0.667-0.233,1.01-0.319c0.187-0.046,0.365-0.128,0.552-0.159
		c0.295-0.047,0.592-0.074,0.871-0.196c0.014-0.007,0.031,0.002,0.047-0.001c0.515-0.07,2.339-0.16,2.763-0.084
		c0.242,0.042,0.48,0.065,0.721,0.096c0.224,0.027,0.463,0.038,0.669,0.1c0.423,0.131,0.886,0.119,1.277,0.358
		c0.876,0.155,1.69,0.518,2.526,0.797c0.567,0.192,1.131,0.406,1.703,0.593c0.309,0.102,0.624,0.187,0.943,0.25
		c0.381,0.079,0.771,0.141,1.151,0.22c0.344,0.073,0.675,0.05,1.011,0.069c0.348,0.018,0.712,0.068,1.041-0.013
		c0.406-0.101,0.822-0.109,1.229-0.236c0.392-0.123,0.789-0.247,1.183-0.367c0.786-0.241,1.528-0.606,2.319-0.837
		c0.206-0.059,0.443-0.111,0.616-0.226c0.213-0.142,0.459-0.107,0.669-0.231c0.187-0.112,0.44-0.063,0.632-0.196
		c0.448,0.037,0.845-0.25,1.297-0.2c0.179,0.019,0.335-0.127,0.531-0.099c0.161,0.022,0.343,0.056,0.482-0.089
		c0.808,0,1.616,0,2.422,0c0.156,0.156,0.352,0.071,0.53,0.098c0.254,0.035,0.508,0.066,0.756,0.126
		c0.316,0.075,0.633,0.147,0.941,0.252c0.349,0.119,0.709,0.2,1.055,0.325c0.454,0.166,0.876,0.409,1.329,0.583
		c0.313,0.12,0.6,0.319,0.886,0.502c0.403,0.259,0.798,0.53,1.191,0.804c0.387,0.269,0.768,0.544,1.128,0.853
		c0.528,0.45,1.019,0.936,1.498,1.438C46.73,17.413,46.997,17.755,47.28,18.089z"/>
	<path d="M24.07,11.175c-0.077-0.077-0.11-0.113-0.137-0.14c-0.068-0.298,0.074-0.614-0.094-0.911
		c0.016-0.017,0.046-0.052,0.079-0.087C23.8,9.72,23.756,9.407,23.892,9.08c0.041-0.098,0.017-0.221,0.026-0.333
		c0.03-0.378,0.011-0.77,0.108-1.13c0.157-0.582,0.316-1.165,0.515-1.738c0.247-0.716,0.571-1.396,0.931-2.055
		c0.318-0.574,0.695-1.116,1.078-1.654c0.531-0.749,1.157-1.407,1.83-2.011c0.604-0.541,1.24-1.046,1.961-1.446
		c0.524-0.292,1.035-0.611,1.57-0.888c0.347-0.18,0.714-0.307,1.073-0.45c0.486-0.193,0.999-0.314,1.496-0.48
		c0.162-0.054,0.355,0.069,0.491-0.1c0.363-0.044,0.729-0.087,1.094-0.131c0.045,0.348,0.102,0.657,0.123,0.968
		c0.02,0.307,0.007,0.618,0.003,0.928c-0.004,0.268,0.01,0.529-0.085,0.797c-0.082,0.227,0.034,0.492-0.097,0.743
		c-0.071,0.137-0.016,0.326-0.095,0.497c-0.066,0.143-0.061,0.328-0.096,0.495c-0.108,0.508-0.312,0.98-0.46,1.472
		c-0.14,0.469-0.431,0.866-0.603,1.312c-0.271,0.705-0.704,1.308-1.089,1.938c-0.26,0.426-0.621,0.788-0.938,1.174
		c-0.191,0.231-0.358,0.493-0.586,0.68c-0.47,0.383-0.921,0.79-1.396,1.168c-0.568,0.453-1.206,0.769-1.808,1.149
		c-0.25,0.158-0.555,0.212-0.81,0.381c-0.236,0.157-0.528,0.215-0.793,0.296c-0.593,0.18-1.197,0.323-1.812,0.428
		C25.031,11.175,24.547,11.118,24.07,11.175z"/>
	<path d="M79.737,23.946c1.671,0,3.314,0,4.95,0c0.029,0.032,0.052,0.053,0.061,0.063c-0.015,0.074-0.061,0.167-0.034,0.198
		c0.09,0.116,0.052,0.242,0.052,0.362c0.004,2.965,0.002,5.927,0.002,8.893c0,0.14-0.042,0.297,0.011,0.409
		c0.071,0.146-0.001,0.301,0.061,0.417c0.061,0.121,0.009,0.271,0.115,0.366c-0.019,0.263,0.134,0.475,0.211,0.706
		c0.071,0.223,0.208,0.427,0.381,0.6c0.201,0.196,0.373,0.43,0.644,0.535c0.161,0.063,0.319,0.121,0.49,0.162
		c0.22,0.046,0.434,0.045,0.652,0.05c0.554,0.013,1.038-0.215,1.471-0.537c0.305-0.222,0.828-0.891,0.944-1.399
		c0.051-0.217,0.117-0.427,0.114-0.65c0-3.28,0-6.564,0-9.846c0-0.105,0-0.209,0-0.325c1.675,0,3.34,0,5.035,0
		c0,0.1,0,0.213,0,0.325c0,4.384-0.001,8.769,0.002,13.151c0,0.119-0.06,0.255,0.071,0.339c-0.087,0.135-0.115,0.273-0.049,0.389
		c0.05,0.088,0.032,0.162,0.033,0.242c0.006,0.35,0,0.697,0.006,1.047c0,0.088,0.028,0.173,0.049,0.285
		c-0.008,0.012-0.03,0.044-0.055,0.079c0.119,0.222,0.04,0.461,0.071,0.703c-1.46,0-2.897,0-4.364,0c0-0.085,0-0.177,0-0.269
		c0.002-0.291-0.103-0.57-0.062-0.864c-0.106-0.16-0.042-0.341-0.062-0.512c-0.015-0.12-0.046-0.239-0.058-0.355
		c-0.011-0.113-0.002-0.227-0.002-0.356c-0.058,0.019-0.1,0.019-0.11,0.036c-0.284,0.52-0.686,0.946-1.115,1.325
		c-0.355,0.316-0.755,0.582-1.182,0.795c-0.205,0.103-0.942,0.356-1.157,0.401c-0.26,0.055-0.522,0.086-0.779,0.139
		c-0.413,0.083-0.824,0.032-1.232,0.043c-0.152,0.002-0.308-0.058-0.467-0.061c-0.156-0.001-0.318-0.013-0.464-0.066
		c-0.135-0.053-0.278-0.068-0.413-0.121c-0.303-0.106-0.613-0.195-0.897-0.364c-0.242-0.146-0.487-0.274-0.706-0.467
		c-0.127-0.114-0.257-0.227-0.38-0.346c-0.479-0.459-0.832-1.011-1.104-1.622c-0.19-0.421-0.331-0.855-0.436-1.308
		c-0.055-0.229-0.085-0.464-0.167-0.69c-0.05-0.137,0.016-0.306-0.072-0.446c0.03-0.405-0.068-0.803-0.066-1.212
		c0.01-3.305,0.005-6.607,0.005-9.911C79.737,24.176,79.737,24.07,79.737,23.946z"/>
	<path d="M99.074,24.083c1.367,0,2.724,0,4.083,0c0.022,0.048,0.047,0.101,0.081,0.178c0,0.105-0.008,0.235,0.003,0.365
		c0.01,0.144,0.037,0.288,0.058,0.43c0.02,0.143-0.049,0.301,0.058,0.432c0.009,0.012,0.003,0.043,0,0.064
		c-0.026,0.288,0.038,0.568,0.071,0.854c0.104-0.033,0.136-0.134,0.188-0.227c0.053-0.098,0.138-0.177,0.212-0.262
		c0.202-0.244,0.388-0.512,0.618-0.723c0.233-0.213,0.483-0.411,0.747-0.585c0.321-0.211,0.649-0.403,1.005-0.535
		c0.111-0.042,0.22-0.094,0.332-0.129c0.158-0.049,0.318-0.105,0.479-0.129c0.461-0.07,0.92-0.172,1.389-0.133
		c0.493,0.042,0.979,0.094,1.46,0.252c0.666,0.22,1.197,0.502,1.707,0.936c0.25,0.211,0.461,0.458,0.671,0.705
		c0.177,0.21,0.32,0.456,0.459,0.702c0.129,0.23,0.241,0.475,0.343,0.722c0.153,0.377,0.278,0.767,0.355,1.175
		c0.031,0.167,0.089,0.33,0.113,0.501c0.022,0.165,0.049,0.331,0.077,0.492c0.023,0.146,0.008,0.297,0.051,0.429
		c0.041,0.137,0.049,0.267,0.05,0.402c0.001,0.152-0.016,0.308,0.004,0.456c0.117,0.86,0.039,1.726,0.052,2.587
		c0.016,0.86,0.004,1.719,0.004,2.577c0,0.872,0,1.744,0,2.614c0,0.86,0,1.72,0,2.579c0,0.099,0,0.195,0,0.303
		c-1.599,0-3.192,0-4.802,0c-0.003-0.081-0.009-0.174-0.009-0.269c-0.002-3.155,0-6.312-0.005-9.47
		c-0.001-0.175,0.038-0.354-0.041-0.534c-0.063-0.146,0.034-0.339-0.073-0.488c0.045-0.229-0.088-0.418-0.125-0.63
		c-0.037-0.19-0.157-0.36-0.224-0.549c-0.047-0.131-0.114-0.237-0.205-0.327c-0.172-0.172-0.314-0.369-0.511-0.517
		c-0.188-0.141-0.402-0.186-0.606-0.267c-0.12-0.047-0.256-0.057-0.385-0.068c-0.126-0.01-0.256-0.002-0.382-0.001
		c-0.381,0-0.978,0.271-1.302,0.526c-0.395,0.313-0.646,0.733-0.841,1.21c-0.122,0.289-0.192,0.588-0.243,0.903
		c-0.057,0.333-0.043,0.66-0.043,0.987c-0.005,3.157-0.003,6.313-0.003,9.469c-0.245,0.049-3.938,0.064-4.753,0.022
		c0-0.106,0-0.211,0-0.319c0-4.114,0-8.229,0-12.343c-0.107-0.892-0.043-1.788-0.058-2.684c-0.003-0.122-0.132-0.239-0.012-0.366
		c-0.095-0.11-0.04-0.246-0.047-0.369c-0.011-0.141-0.001-0.283-0.001-0.425c0-0.131,0-0.262,0-0.392
		C99.074,24.176,99.074,24.135,99.074,24.083z"/>
	<path d="M132.43,33.804c-3.501,0-7.038,0-10.576,0c-0.102,0.123,0.012,0.227,0.029,0.34c0.112,0.715,0.487,1.286,1.035,1.725
		c0.335,0.269,0.729,0.458,1.139,0.614c0.385,0.143,0.771,0.252,1.177,0.309c0.195,0.141,0.433,0.032,0.651,0.111
		c0.195,0.071,0.438,0.015,0.661,0.015c0.233,0,0.468-0.006,0.699,0.004c0.069,0.004,0.134-0.12,0.2-0.006
		c0.048-0.078,0.125-0.061,0.199-0.061c0.083,0,0.166,0,0.251,0c0.075,0,0.153,0.016,0.221-0.004
		c0.349-0.104,0.721-0.057,1.069-0.182c0.127-0.045,0.279-0.041,0.417-0.058c0.243-0.031,0.466-0.121,0.705-0.154
		c0.21-0.028,0.41-0.136,0.624-0.18c0.026-0.004,0.047-0.039,0.062-0.05c0.202,0.042,0.073,0.228,0.15,0.344
		c0.082,0.122,0.067,0.312,0.08,0.473c0.017,0.181,0.062,0.354,0.114,0.525c0.037,0.124-0.026,0.27,0.077,0.38
		c-0.005,0.297,0.1,0.578,0.144,0.867c0.038,0.257,0.061,0.531,0.171,0.78c0.018,0.044,0.004,0.104,0.004,0.15
		c-0.093,0.032-0.175,0.063-0.259,0.092c-0.075,0.023-0.151,0.045-0.226,0.071c-0.174,0.06-0.346,0.144-0.528,0.177
		c-0.177,0.033-0.326,0.16-0.518,0.132c-0.358,0.158-0.753,0.178-1.132,0.265c-0.132,0.028-0.271,0.016-0.386,0.064
		c-0.132,0.055-0.26,0.049-0.39,0.055c-0.121,0.004-0.224,0.085-0.356,0.067c-0.105-0.015-0.227-0.035-0.323,0.056
		c-0.017,0.016-0.062,0.007-0.093,0.004c-0.397-0.036-0.787,0.053-1.181,0.061c-0.402,0.01-0.807,0.018-1.208-0.003
		c-0.298-0.018-0.595-0.08-0.896-0.058c-0.13-0.093-0.283-0.032-0.417-0.072c-0.132-0.039-0.267-0.023-0.386-0.063
		c-0.235-0.078-0.484-0.101-0.721-0.178c-0.277-0.093-0.571-0.146-0.844-0.261c-0.436-0.181-0.877-0.342-1.276-0.606
		c-0.145-0.099-0.308-0.177-0.455-0.276c-0.082-0.057-0.162-0.12-0.244-0.182c-0.08-0.058-0.166-0.113-0.242-0.18
		c-0.204-0.175-0.422-0.34-0.6-0.54c-0.366-0.418-0.724-0.842-0.991-1.334c-0.115-0.208-0.235-0.412-0.337-0.624
		c-0.18-0.373-0.325-0.754-0.431-1.159c-0.092-0.354-0.213-0.702-0.242-1.072c-0.142-0.153-0.027-0.353-0.101-0.53
		c-0.063-0.154-0.016-0.354-0.03-0.528c-0.011-0.162-0.048-0.32-0.059-0.482c-0.011-0.159-0.016-0.32,0.001-0.477
		c0.037-0.341,0.081-0.679,0.061-1.023c0.089-0.129,0.038-0.28,0.071-0.416c0.031-0.129,0.043-0.257,0.062-0.388
		c0.03-0.203,0.104-0.4,0.153-0.604c0.09-0.373,0.215-0.734,0.352-1.092c0.136-0.347,0.251-0.702,0.476-1.013
		c0.113-0.158,0.19-0.341,0.283-0.515c0.128-0.24,0.3-0.45,0.461-0.667c0.282-0.377,0.629-0.699,0.966-1.028
		c0.355-0.345,0.772-0.616,1.193-0.876c0.15-0.094,0.299-0.2,0.462-0.266c0.565-0.223,1.123-0.473,1.727-0.583
		c0.226-0.041,0.455-0.085,0.677-0.134c0.238-0.053,0.482-0.002,0.703-0.062c0.344-0.091,0.688-0.059,1.025-0.046
		c0.474,0.019,0.945,0.065,1.416,0.171c0.389,0.087,0.777,0.169,1.148,0.298c0.44,0.149,0.852,0.366,1.242,0.61
		c0.343,0.216,0.663,0.475,0.955,0.758c0.604,0.58,1.065,1.262,1.435,2.011c0.227,0.466,0.366,0.97,0.564,1.449
		c-0.012,0.257,0.144,0.48,0.138,0.741c-0.004,0.135,0.071,0.27,0.069,0.415c-0.002,0.033,0.046,0.067,0.05,0.102
		c0.024,0.299,0.056,0.599,0.062,0.896c0.007,0.373,0.112,0.741,0.066,1.117c-0.02,0.161-0.05,0.321-0.06,0.483
		c-0.013,0.157,0.04,0.334-0.013,0.473C132.513,33.241,132.619,33.53,132.43,33.804z M127.846,30.238
		c0.039-0.355-0.035-0.688-0.107-1.027c-0.088-0.411-0.243-0.789-0.455-1.145c-0.261-0.426-0.646-0.716-1.091-0.934
		c-0.308-0.153-0.644-0.187-0.975-0.251c-0.308-0.06-0.613,0.066-0.925,0.062c-0.081,0.085-0.214,0.023-0.283,0.077
		c-0.229,0.178-0.567,0.156-0.748,0.419c-0.445,0.292-0.746,0.705-1,1.165c-0.132,0.233-0.228,0.483-0.304,0.73
		c-0.087,0.29-0.218,0.594-0.113,0.904C123.849,30.238,125.846,30.238,127.846,30.238z"/>
	<path d="M62.597,17.906c4.942,0,9.875,0,14.817,0c0,1.449,0,2.892,0,4.348c0.003-0.005-0.001,0.005-0.009,0.011
		c-0.007,0.005-0.016,0.01-0.023,0.01c-1.736,0-3.472,0-5.217,0c0,6.146,0,12.282,0,18.416c-0.236,0.051-3.526,0.069-4.407,0.024
		c0-6.134,0-12.269,0-18.392c-0.015-0.021-0.019-0.029-0.026-0.036c-0.006-0.006-0.015-0.012-0.023-0.012c-1.7,0-3.401,0-5.111,0
		C62.597,20.821,62.597,19.377,62.597,17.906z"/>
	<path d="M145.592,24.954c-0.261,1.15-0.517,2.286-0.781,3.444c-0.059-0.031-0.1-0.054-0.142-0.078
		c-0.373-0.207-0.754-0.396-1.151-0.527c-0.192-0.062-0.398-0.096-0.59-0.158c-0.511-0.164-1.027-0.096-1.543-0.111
		c-0.158-0.006-0.542,0.111-0.701,0.214c-0.194,0.121-0.343,0.296-0.455,0.514c-0.06,0.114-0.093,0.227-0.087,0.361
		c0.003,0.063-0.023,0.126-0.041,0.211c0.012,0.05,0.04,0.125,0.041,0.198c0.001,0.128,0.042,0.224,0.112,0.316
		c0.225,0.296,0.404,0.456,0.731,0.641c0.528,0.3,1.086,0.512,1.641,0.737c0.117,0.048,0.239,0.08,0.351,0.141
		c0.287,0.15,0.572,0.305,0.85,0.475c0.374,0.232,0.743,0.472,1.046,0.823c0.072,0.084,0.177,0.133,0.241,0.221
		c0.28,0.387,0.562,0.772,0.733,1.248c0.12,0.34,0.205,0.684,0.271,1.04c0.039,0.21,0.04,0.414,0.049,0.621
		c0.002,0.054,0.031,0.106,0.05,0.171c-0.059,0.084-0.091,0.18,0.008,0.279c-0.021,0.051-0.062,0.106-0.057,0.154
		c0.032,0.254-0.034,0.497-0.063,0.741c-0.029,0.242-0.096,0.486-0.181,0.713c-0.126,0.34-0.259,0.68-0.457,0.979
		c-0.232,0.35-0.472,0.684-0.784,0.95c-0.231,0.199-0.467,0.385-0.713,0.557c-0.379,0.262-0.798,0.43-1.215,0.576
		c-0.189,0.065-0.396,0.101-0.593,0.154c-0.254,0.069-0.522,0.055-0.769,0.171c-0.015,0.008-0.034,0.002-0.054,0.001
		c-0.389-0.025-0.77,0.099-1.159,0.063c-0.186-0.017-0.377,0.004-0.564-0.005c-0.137-0.008-0.27-0.046-0.406-0.058
		c-0.135-0.011-0.28,0.033-0.402-0.013c-0.12-0.041-0.242-0.022-0.354-0.06c-0.11-0.034-0.224-0.024-0.326-0.059
		c-0.282-0.098-0.574-0.135-0.858-0.221c-0.21-0.065-0.414-0.147-0.626-0.211c-0.206-0.062-0.392-0.205-0.598-0.275
		c-0.161-0.057-0.299-0.163-0.478-0.231c0.098-0.606,0.258-1.202,0.385-1.804s0.26-1.203,0.395-1.82
		c0.559,0.423,1.18,0.617,1.777,0.865c0.13,0.056,0.275,0.084,0.414,0.114c0.134,0.028,0.269,0.06,0.397,0.097
		c0.342,0.096,0.685,0.129,1.032,0.109c0.076-0.005,0.137,0.081,0.229,0.014c0.063-0.046,0.175-0.01,0.265-0.01
		c0.088,0,0.18,0.015,0.269-0.001c0.398-0.084,0.792-0.205,1.038-0.606c0.178-0.287,0.287-0.64,0.155-0.953
		c-0.03-0.474-0.319-0.706-0.641-0.916c-0.347-0.229-0.721-0.381-1.096-0.535c-0.352-0.144-0.703-0.282-1.048-0.445
		c-0.252-0.119-0.492-0.271-0.739-0.408c-0.31-0.174-0.592-0.402-0.877-0.621c-0.19-0.147-0.304-0.389-0.52-0.491
		c-0.207-0.334-0.493-0.598-0.648-0.978c-0.075-0.19-0.172-0.372-0.239-0.563c-0.065-0.185-0.092-0.386-0.158-0.571
		c-0.006-0.017-0.005-0.038-0.006-0.058c-0.019-0.309-0.068-0.62-0.047-0.926c0.04-0.576,0.104-1.152,0.313-1.691
		c0.126-0.322,0.263-0.637,0.433-0.93c0.076-0.13,0.157-0.26,0.251-0.372c0.239-0.284,0.469-0.583,0.757-0.803
		c0.368-0.278,0.729-0.571,1.158-0.735c0.178-0.069,0.357-0.146,0.533-0.234c0.176-0.086,0.372-0.099,0.554-0.177
		c0.132-0.059,0.286-0.058,0.432-0.068c0.129-0.011,0.244-0.089,0.382-0.069c0.117,0.018,0.24,0.022,0.355-0.054
		c0.032-0.021,0.088-0.003,0.132-0.003c0.296,0,0.593-0.014,0.887,0.004c0.243,0.014,0.484,0.083,0.729,0.057
		c0.12,0.088,0.254,0.049,0.383,0.065c0.117,0.014,0.235,0.044,0.353,0.067c0.312,0.062,0.619,0.159,0.929,0.252
		c0.256,0.077,0.507,0.178,0.751,0.294C145.349,24.813,145.461,24.882,145.592,24.954z"/>
	<path d="M54.704,24.073c1.468,0,2.926,0,4.406,0c-0.026,0.044-0.043,0.071-0.05,0.083c0.017,0.111,0.043,0.208,0.043,0.308
		c0.002,5.42,0.002,10.84,0.002,16.276c-1.465,0-2.929,0-4.401,0C54.704,35.196,54.704,29.649,54.704,24.073z"/>
	<path d="M56.88,16.785c0.028,0.013,0.067,0.044,0.105,0.043c0.51-0.022,0.755,0.004,1.314,0.289
		c0.102,0.052,0.361,0.305,0.453,0.393c0.144,0.14,0.273,0.295,0.352,0.474c0.084,0.188,0.14,0.391,0.183,0.598
		c0.041,0.193,0.048,0.383,0.039,0.571c-0.022,0.507-0.191,0.955-0.552,1.329c-0.336,0.35-0.741,0.543-1.208,0.655
		c-0.327,0.079-0.65,0.019-0.974,0.048c-0.091-0.095-0.216-0.03-0.319-0.072c-0.138-0.057-0.287-0.088-0.418-0.157
		c-0.149-0.08-0.282-0.189-0.417-0.295c-0.252-0.2-0.405-0.466-0.562-0.732c-0.053-0.089-0.05-0.195-0.078-0.291
		c-0.125-0.404-0.107-0.66-0.042-1.069c0.024-0.152,0.047-0.297,0.112-0.439c0.186-0.406,0.371-0.716,0.818-0.979
		c0.247-0.145,0.512-0.232,0.782-0.316c0.065-0.021,0.143,0.001,0.214-0.004C56.737,16.824,56.793,16.806,56.88,16.785z"/>
</g>
</svg>
