<?xml version="1.0" encoding="utf-8"?>
<!-- Generator: Adobe Illustrator 16.0.0, SVG Export Plug-In . SVG Version: 6.00 Build 0)  -->
<!DOCTYPE svg PUBLIC "-//W3C//DTD SVG 1.1//EN" "http://www.w3.org/Graphics/SVG/1.1/DTD/svg11.dtd">
<svg version="1.1" id="Layer_1" xmlns="http://www.w3.org/2000/svg" xmlns:xlink="http://www.w3.org/1999/xlink" x="0px" y="0px"
	 width="177.93px" height="68.088px" viewBox="0 0 177.93 68.088" enable-background="new 0 0 177.93 68.088" xml:space="preserve">
<g>
	<path fill-rule="evenodd" clip-rule="evenodd" d="M80.761,50.997c-10.789,0.244-10.789,0.244-17.244-3.083
		c-2.007,4.797-4.323,9.447-9.894,11.205c-1.785,0-3.569,0-5.526,0c0,1.952,0,3.739,0,5.037c-1.432,1.57-2.547,2.793-3.587,3.933
		c-4.322,0-8.485,0-12.719,0c-1.159-0.673-2.371-1.376-3.867-2.245c0-1.853,0-3.762,0-5.774c-10.067,3.263-10.702,2.36-16.231,0.234
		c-0.118-0.025-0.297-0.114-0.344-0.067c-0.955,0.93-1.894,1.875-2.351,2.332c-1.76,0.648-2.935,1.081-4.376,1.611
		C3.131,63.116,1.471,61.93,0,60.879c0-5.692,0-11.015,0-16.259c0.874-0.873,1.696-1.696,2.718-2.718c0.568,0,1.35,0,2.686,0
		c-5.161-4.163-6.06-9.355-5.28-15.312c1.322-2.562,2.641-5.553,5.339-7.435c2.88-2.01,6.458-2.299,9.745-2.888
		c2.069-0.37,4.451,1.011,6.891,1.658c2.438-1.582,5.461-0.508,8.364-0.896c0.786,0.871,1.563,1.734,2.46,2.729
		c0.042,0.888,0.094,2.013,0.155,3.329c1.98,0,3.832-0.258,5.58,0.056c3.256,0.583,6.445,0.521,9.676-0.045
		c4.04-0.708,7.415,1.088,10.833,3.238c3.109-6.229,7.396-10.7,14.669-11.263c7.116-0.551,12.48,2.398,16.86,9.369
		c0.184-3.221,0.292-5.122,0.397-6.973c0.755-0.755,1.461-1.462,2.275-2.275c2.674,0,5.457,0,8.21,0
		c2.334,2.028,2.599,4.703,2.349,7.695c1.264,0,2.375,0,3.707,0c0.06-0.183,0.309-0.604,0.324-1.033
		c0.135-3.415,0.121-3.416,2.374-6.659c2.704,0,5.487,0,8.253,0c0.727,0.726,1.434,1.432,2.314,2.313c0,1.604,0,3.391,0,5.264
		c0.592,0.154,1.041,0.271,1.861,0.483c0.104-1.887,0.201-3.636,0.312-5.65c1.584-4.397,5.305-5.569,9.75-5.523
		c1.832,0.019,3.664,0.003,5.734,0.003c0.592,0.795,1.286,1.728,2.346,3.15c-0.369,2.218,1.139,5.396-1.322,8.231
		c3.638,1.65,7.537-0.86,10.715,2.036c0.717-1.013,1.289-1.82,1.713-2.418c6.9,0,13.389,0.065,19.875-0.034
		c2.424-0.037,4.373,0.71,6.045,2.495c0,2.265,0,4.583,0,7.149c-0.721,0.615-1.6,1.366-2.857,2.439c-3.588,0-7.707,0-11.696,0
		c-1.611,5.049-3.107,9.923-4.729,14.755c-1.077,3.21-2.52,6.305-3.47,9.548c-1.661,5.669-1.776,5.101-6.691,8.641
		c-2.997,0.002-5.993,0.002-9.028,0.002c-0.787-0.815-1.596-1.653-2.615-2.709c0-2.199,0-4.653,0-7.19c-13.138,0-26.102,0-38.9,0
		c-4.178-2.412-4.596-2.812-7.078-6.816c0-3.171,0-6.624,0-10.076c-1.364,2.109-2.387,4.349-4.42,5.812
		C84.536,48.477,82.567,49.764,80.761,50.997z M138.667,31.123c3.201,8.631,6.309,17.011,9.36,25.238
		c-0.852,1.361-1.604,2.563-2.41,3.853c-1.545,0-2.996,0-4.674,0c0.072,1.425,0.135,2.659,0.195,3.871c2.682,0,5.014,0,7.149,0
		c3.161-1.906,3.612-5.25,4.636-8.159c2.818-8.007,5.383-16.104,8.068-24.158c0.088-0.265,0.396-0.455,0.577-0.651
		c0.808-0.042,1.586-0.082,2.262-0.117c0-1.466,0-2.584,0-3.662c-3.722,0-7.293,0-10.68,0c0,1.367,0,2.486,0,3.581
		c1.077,0.165,1.975,0.304,2.927,0.449c-1.916,5.718-3.73,11.135-5.734,17.116c-2.602-5.739-4.434-11.359-6.516-17.137
		c1.106-0.174,2.023-0.317,2.905-0.456c0-1.321,0-2.557,0-3.964c-5.03,0-9.816,0-14.661,0c0-2.295,0-4.412,0-6.882
		c1.648,0,3.239,0,5.223,0c0.293-1.397,0.532-2.54,0.809-3.861c-3.555,0-6.673,0-9.764,0c-0.485,0.539-1.023,0.97-1.346,1.525
		c-1.471,2.536-0.948,5.346-1.033,8.074c-0.014,0.446-0.226,0.888-0.385,1.473c-1.209,0-2.328,0-3.643,0
		c0.094,1.414,0.176,2.638,0.27,4.035c1.469,0,2.574,0,3.646,0c0,6.653,0,13.104,0,19.574c-1.032,0.176-1.95,0.333-2.715,0.463
		c0,1.341,0,2.459,0,3.594c3.941,0,7.725,0.003,11.509-0.016c0.112,0,0.222-0.227,0.146-0.144c0-1.319,0-2.435,0-3.536
		c-0.973-0.115-1.76-0.209-2.597-0.309c0-6.627,0-13.196,0-19.795C134.398,31.123,136.389,31.123,138.667,31.123z M3.15,46.19
		c0,4.519,0,8.637,0,12.632c2.446,1.613,2.449,1.617,4.711-0.103c0.099-1.844,0.201-3.74,0.302-5.636
		c2.257,1.76,4.289,3.343,6.422,5.005c1.854,0,3.856-0.11,5.842,0.021c5.464,0.36,10.947-4.353,10.564-10.685
		c-0.1-1.644-0.015-3.299-0.015-4.837c-0.583-0.583-1.344-0.985-1.475-1.537c-0.559-2.349-2.44-3.216-4.327-3.927
		c-2.937-1.107-5.934-2.297-9.147-1.997c-2.786,0.261-4.629-1.753-6.906-2.381c0-1.551,0-3.004,0-4.303
		c1.204-1.204,2.264-2.264,3.072-3.071c6.121-1.633,9.902,1.558,12.989,5.555c1.724,0,3.182,0,4.624,0
		c0-3.277,0.003-6.394-0.016-9.51c0-0.11-0.227-0.22-0.141-0.142c-1.662,0-3.116,0-4.509,0c-0.153,1.056-0.279,1.919-0.384,2.645
		c-2.238-1.354-4.248-2.57-6.275-3.797c-3.663-0.118-7.347-0.42-10.637,1.941c-3.048,2.188-4.971,5.186-4.729,8.759
		c0.23,3.393,1.57,6.563,5.194,8.347c2.667,1.313,5.315,2.252,8.197,1.854c2.237-0.31,4.153,0.681,5.992,1.327
		c1.379,0.484,2.196,2.597,3.229,4.009c0.171,0.233,0.171,0.592,0.167,0.573c-0.52,1.581-0.952,2.893-1.346,4.091
		c-3.058,2.992-6.752,1.814-9.247,2.015c-4.165-1.333-5.905-4.027-7.531-6.85C6.231,46.19,4.781,46.19,3.15,46.19z M43.691,64.088
		c0-1.336,0-2.67,0-4.198c-1.063,0-1.839,0-2.715,0c0-1.514-0.03-2.829,0.009-4.143c0.036-1.205,0.146-2.408,0.242-3.908
		c0.804,0.804,1.196,1.419,1.757,1.718c2.182,1.165,4.584,2.787,6.888,2.354c2.613-0.492,5.733-1.09,7.377-3.668
		c1.917-3.006,3.417-6.229,3.751-9.905c0.378-4.146-1.135-7.728-3.036-11.211c-1.718-3.147-6.709-5.657-10.044-5.004
		c-1.188,0.232-2.299,0.855-3.445,1.301c-0.209-0.258-0.418-0.515-0.626-0.772c-0.977,0.977-1.953,1.954-2.747,2.748
		c-0.084-0.483-0.242-1.396-0.374-2.161c-3,0-5.779,0-8.78,0c0.067,1.401,0.125,2.633,0.191,4.021c1.116,0,1.898,0,2.708,0
		c0,9.603,0.001,19.03-0.015,28.459c0,0.118-0.22,0.235-0.512,0.526c-0.609,0-1.392,0-2.386,0c0.079,1.288,0.137,2.404,0.23,3.518
		c0.01,0.118,0.228,0.219,0.349,0.327C36.168,64.088,39.822,64.088,43.691,64.088z M61.977,28.977c0,2.007-0.284,4.532,0.073,6.963
		c0.427,2.906,1.234,5.751,3.324,8.102c2.259,2.542,5.328,3.649,8.337,3.931c8.111,0.761,14.633-5.517,14.285-12.962
		c-0.116-2.484-0.019-4.979-0.019-6.547c-1.431-4.642-3.754-7.536-8.576-9.305c-0.863-0.16-2.873-0.535-4.265-0.795
		c-3.064,0.963-5.999,0.918-8.204,3.126C64.843,23.583,63.539,26.064,61.977,28.977z M99.801,27.107c0-2.982,0-5.435,0-7.92
		c-1.959,0-3.741,0-5.871,0c0,2.658,0,5.243,0,7.742c-1.566,0.166-2.782,0.295-4.316,0.457c0.748,1.517,1.291,2.618,1.912,3.88
		c0.742,0,1.524,0,2.287,0c0.756,6.955-0.963,13.898,1.406,20.564c1.059,1.059,2.117,2.117,3.127,3.127c2.5,0,4.949,0,7.398,0
		c0-1.369,0-2.604,0-4.007c-1.349,0-2.465,0-3.406,0c-0.88-0.881-1.586-1.587-2.23-2.232c0-5.838,0-11.616,0-17.74
		c2.027,0,3.947,0,5.715,0c0-1.474,0-2.586,0-3.871C103.887,27.107,102.104,27.107,99.801,27.107z M109.153,51.227
		c0,1.48,0,2.599,0,3.759c3.962,0,7.745,0,11.617,0c0-1.342,0-2.577,0-3.459c-1.442-0.541-2.597-0.976-3.712-1.394
		c-0.275-7.925,0.18-15.505-0.26-22.854c-2.817,0-5.271,0-7.705,0c0,1.313,0,2.429,0,3.588c1.024,0.166,1.941,0.314,2.736,0.443
		c0,6.672,0,13.123,0,19.61C110.902,51.028,110.115,51.118,109.153,51.227z M143.951,56.953c-0.121-1.693,0.432-3.084-0.879-4.42
		c-0.761-0.776-0.674-2.335-1.11-3.488c-1.63-4.313-3.292-8.615-5.021-12.89c-0.204-0.507-0.901-0.814-1.798-1.577
		c0,4.45,0,8.232,0,12.321c0.663,0.428,1.581,1.021,2.834,1.83c1.586,2.355,1.282,5.201-0.27,8.224
		C139.979,56.953,141.764,56.953,143.951,56.953z M108.835,47.008c0-4.189,0-7.949,0-11.615c-2.999-1.853-3.269-1.835-5.688,0.146
		c0,3.893,0,7.646,0,11.469C105.089,47.008,106.861,47.008,108.835,47.008z M21.028,45.061c-3.711,0.416-6.805-2.376-10.167-0.406
		c2.711,4.009,4.414,5.498,6.895,5.367c1.456-0.077,2.877-0.816,4.585-1.341C21.868,47.376,21.503,46.372,21.028,45.061z
		 M116.633,23.931c0.309-0.309,0.775-0.773,1.234-1.233c0-1.118,0-2.223,0-3.609c-1.058,0-2.006,0-2.955,0c-0.938,0-1.873,0-2.842,0
		c0,1.812,0,3.25,0,4.843C113.589,23.931,115.033,23.931,116.633,23.931z M11.545,29.937c3.629,2.336,3.629,2.336,9.285,1.799
		C19.342,27.634,17.049,27.111,11.545,29.937z M121.152,35.187c0,3.933,0,7.817,0,11.803c0.576,0,1.024,0,1.648,0
		c0-3.933,0-7.817,0-11.803C122.225,35.187,121.776,35.187,121.152,35.187z M170.777,27.257c-1.76,0-3.213,0-4.552,0
		c0.427,1.362,0.81,2.581,1.339,4.268c0.335-1.5,0.56-2.504,0.812-3.63c0.747,0.265,1.181,0.418,1.749,0.62c0,0.832,0,1.613,0,2.604
		c1.413-0.072,2.643-0.135,3.678-0.188c0-1.469,0-2.581,0-3.995c-0.977,0.838-1.703,1.46-2.545,2.183
		C171.055,28.333,170.939,27.884,170.777,27.257z M150.72,38.087c0-1.666,0-3.333,0-5.121c-0.722,0.146-1.171,0.237-2.104,0.426
		C149.592,34.955,148.125,36.828,150.72,38.087z M28.747,34.183c0.532,2.119,1.214,3.262,3.396,2.595
		C31.737,35.074,31.164,33.938,28.747,34.183z M137.793,23.917c-0.018-0.285-0.037-0.57-0.055-0.856
		c-0.557,0.122-1.114,0.243-1.671,0.364c0.022,0.164,0.045,0.328,0.067,0.492C136.688,23.917,137.24,23.917,137.793,23.917z"/>
	<path fill-rule="evenodd" clip-rule="evenodd" d="M89.961,3.506c0,0.708,0,1.365,0,2.181c-0.362,0.12-0.865,0.484-1.195,0.367
		c-3.218-1.142-6.522-1.964-9.876-2.502c-1.854-0.298-4.093-0.787-5.592-0.045C71.418,4.438,69.86,3.626,68.08,4.23
		c0-1.213,0-1.993,0-2.756c3.588-2.359,7.58-1.113,11.384-1.368C83.396-0.157,86.601,1.946,89.961,3.506z"/>
	<path fill-rule="evenodd" clip-rule="evenodd" d="M68.977,8.728c0-0.801,0-1.462,0-2.124c3.225-1.857,6.829-1.864,10.258-1.396
		c2.652,0.362,5.157,1.8,7.813,2.791c-0.113,1.328-0.188,2.223-0.328,3.862c-2.897-3.071-6.496-2.342-9.484-3.666
		c-1.133-0.502-2.908-0.071-4.196,0.432C71.58,9.197,70.327,9.223,68.977,8.728z"/>
	<path fill-rule="evenodd" clip-rule="evenodd" d="M69.081,12.978c-0.054-0.626-0.082-0.946-0.106-1.236
		c4.307-2.789,8.862-1.601,13.243-0.521c1.352,0.333,3.599,0.754,3.813,3.481c-0.668,0.126-1.55,0.597-2.017,0.333
		c-4.474-2.526-9.344-1.891-14.131-1.95C69.726,13.083,69.569,13.045,69.081,12.978z"/>
	<path fill-rule="evenodd" clip-rule="evenodd" fill="#FAFAFA" d="M143.951,56.953c-2.188,0-3.973,0-6.244,0
		c1.552-3.022,1.855-5.868,0.27-8.224c-1.253-0.81-2.171-1.402-2.834-1.83c0-4.089,0-7.871,0-12.321
		c0.896,0.763,1.594,1.07,1.798,1.577c1.729,4.274,3.392,8.576,5.021,12.89c0.437,1.153,0.35,2.712,1.11,3.488
		C144.383,53.869,143.83,55.259,143.951,56.953z"/>
	<path fill-rule="evenodd" clip-rule="evenodd" fill="#FAFAFA" d="M108.835,47.008c-1.974,0-3.746,0-5.688,0
		c0-3.823,0-7.576,0-11.469c2.42-1.981,2.689-1.999,5.688-0.146C108.835,39.059,108.835,42.819,108.835,47.008z"/>
	<path fill-rule="evenodd" clip-rule="evenodd" fill="#FAFAFA" d="M21.028,45.061c0.476,1.311,0.84,2.315,1.314,3.62
		c-1.708,0.524-3.129,1.264-4.585,1.341c-2.481,0.131-4.184-1.358-6.895-5.367C14.223,42.685,17.316,45.477,21.028,45.061z"/>
	<path fill-rule="evenodd" clip-rule="evenodd" fill="#FAFAFA" d="M11.545,29.937c5.504-2.826,7.797-2.303,9.285,1.799
		C15.174,32.273,15.174,32.273,11.545,29.937z"/>
	<path fill-rule="evenodd" clip-rule="evenodd" fill="#FAFAFA" d="M121.152,35.187c0.624,0,1.072,0,1.648,0c0,3.985,0,7.87,0,11.803
		c-0.624,0-1.072,0-1.648,0C121.152,43.004,121.152,39.12,121.152,35.187z"/>
	<path fill-rule="evenodd" clip-rule="evenodd" fill="#FAFAFA" d="M150.72,38.087c-2.595-1.26-1.128-3.133-2.104-4.695
		c0.934-0.188,1.383-0.28,2.104-0.426C150.72,34.754,150.72,36.421,150.72,38.087z"/>
	<path fill-rule="evenodd" clip-rule="evenodd" fill="#FAFAFA" d="M28.747,34.183c2.417-0.245,2.991,0.891,3.396,2.595
		C29.961,37.445,29.279,36.302,28.747,34.183z"/>
	<path fill-rule="evenodd" clip-rule="evenodd" d="M45.12,31.088c2.147,0,3.646,0,5.341,0c0.969,1.158,2.029,2.425,3.424,4.094
		c0.124,0.544,0.308,1.8,0.696,2.989c1.306,3.994-0.309,7.493-2.135,10.761c-0.625,1.117-2.583,1.611-4.03,2.101
		c-0.894,0.302-1.972,0.056-2.509,0.056c-6.003-3.456-4.987-8.961-4.875-14.581C42.249,34.894,43.688,32.988,45.12,31.088z
		 M44.156,43.27c0.513,3.618,2.338,4.313,4.236,4.91c0.895-0.904,1.706-1.726,2.469-2.497c0-3.137,0-6.233,0-8.542
		c-1.06-1.438-1.738-2.359-2.417-3.28c-1.348,0.677-2.424,1.218-2.606,1.309C42.882,38.488,44.442,41.672,44.156,43.27z"/>
	<path fill-rule="evenodd" clip-rule="evenodd" d="M72.464,43.088c-2.427-0.586-2.737-3.269-4.487-4.516
		c0-2.812-0.203-5.642,0.043-8.432c0.484-5.482,6.262-8.951,11.005-6.048c0.534,0.326,1.309,0.612,1.492,1.099
		c1.226,3.244,3.781,6.284,1.768,10.111c-0.209,0.396-0.227,0.9-0.306,1.359c-0.872,5.061-2.415,6.378-7.536,6.425
		C73.784,43.093,73.124,43.088,72.464,43.088z M76.681,39.956c3.505-3.676,1.881-7.817,2.342-11.32
		c-0.728-0.728-1.079-1.079-1.44-1.44c-1.436,0-2.878,0-4.149,0c-3.254,2.706-2.303,6.228-2.458,9.178
		c0.837,1.384,1.483,2.448,2.17,3.583C74.311,39.956,75.428,39.956,76.681,39.956z"/>
	<path fill-rule="evenodd" clip-rule="evenodd" fill="#FAFAFA" d="M44.156,43.27c0.287-1.598-1.273-4.782,1.682-8.101
		c0.183-0.091,1.259-0.632,2.606-1.309c0.679,0.921,1.357,1.842,2.417,3.28c0,2.309,0,5.405,0,8.542
		c-0.763,0.771-1.574,1.593-2.469,2.497C46.494,47.583,44.668,46.888,44.156,43.27z"/>
</g>
</svg>
