<?xml version="1.0" encoding="utf-8"?>
<!-- Generator: Adobe Illustrator 16.0.0, SVG Export Plug-In . SVG Version: 6.00 Build 0)  -->
<!DOCTYPE svg PUBLIC "-//W3C//DTD SVG 1.1//EN" "http://www.w3.org/Graphics/SVG/1.1/DTD/svg11.dtd">
<svg version="1.1" id="Layer_1" xmlns="http://www.w3.org/2000/svg" xmlns:xlink="http://www.w3.org/1999/xlink" x="0px" y="0px"
	 width="84.992px" height="115.872px" viewBox="263.348 349.564 84.992 115.872"
	 enable-background="new 263.348 349.564 84.992 115.872" xml:space="preserve">
<g>
	<g>
		<g>
			<path fill="#84BD00" d="M306,349.564c-23.479,0-42.34,18.86-42.34,42.34c0,23.479,18.86,42.34,42.34,42.34
				c23.479,0,42.34-18.861,42.34-42.34C348.34,368.617,329.479,349.564,306,349.564z M325.438,410.764
				c-0.77,1.154-2.309,1.732-3.656,0.963c-10.008-6.158-22.517-7.506-37.144-4.041c-1.347,0.385-2.887-0.578-3.079-1.926
				c-0.385-1.348,0.577-2.887,1.925-3.078c16.166-3.658,30.022-2.117,41.185,4.811C325.822,407.877,326.207,409.416,325.438,410.764
				z M330.635,399.217c-0.963,1.539-3.08,2.117-4.619,1.154c-11.355-6.928-28.676-9.044-42.147-5.003
				c-1.732,0.577-3.656-0.385-4.042-2.117c-0.577-1.731,0.386-3.656,2.117-4.041c15.396-4.619,34.449-2.502,47.535,5.581
				C331.02,395.56,331.596,397.678,330.635,399.217z M331.02,387.092c-13.664-8.083-36.182-8.853-49.269-4.812
				c-2.117,0.578-4.233-0.577-5.004-2.694c-0.577-2.116,0.577-4.233,2.694-5.003c15.012-4.619,39.838-3.657,55.619,5.581
				c1.924,1.154,2.502,3.464,1.348,5.389C335.445,387.669,332.943,388.248,331.02,387.092z"/>
		</g>
	</g>
	<g>
		<path d="M263.348,457.531l1.838-2.482c1.287,1.379,3.218,2.572,5.792,2.572c2.666,0,3.677-1.287,3.677-2.572
			c0-3.861-10.663-1.471-10.663-8.182c0-3.033,2.666-5.424,6.711-5.424c2.85,0,5.147,0.92,6.894,2.574l-1.838,2.389
			c-1.471-1.469-3.402-2.113-5.332-2.113c-1.839,0-3.125,0.92-3.125,2.299c0,3.492,10.662,1.285,10.662,8.182
			c0,3.033-2.205,5.699-7.077,5.699C267.484,460.473,265.003,459.186,263.348,457.531z"/>
		<path d="M283.755,458.266v6.895h-2.941v-18.385h2.941v1.838c1.011-1.285,2.573-2.113,4.229-2.113c3.493,0,5.883,2.574,5.883,6.984
			c0,4.414-2.481,6.988-5.883,6.988C286.328,460.473,284.857,459.645,283.755,458.266z M290.925,453.395
			c0-2.574-1.47-4.414-3.769-4.414c-1.379,0-2.758,0.736-3.401,1.748v5.33c0.644,1.012,2.022,1.84,3.401,1.84
			C289.455,457.898,290.925,456.059,290.925,453.395z"/>
		<path d="M296.072,453.395c0-3.861,2.574-6.988,6.803-6.988s6.803,3.127,6.803,6.988c0,3.768-2.574,6.986-6.803,6.986
			S296.072,457.254,296.072,453.395z M306.736,453.395c0-2.391-1.379-4.414-3.861-4.414s-3.86,2.023-3.86,4.414
			c0,2.389,1.378,4.412,3.86,4.412C305.357,457.898,306.736,455.783,306.736,453.395z"/>
		<path d="M313.263,456.979v-7.721h-2.207v-2.482h2.207V443.1h2.941v3.676h2.666v2.482h-2.666v6.986
			c0,0.918,0.459,1.562,1.287,1.562c0.55,0,1.01-0.275,1.286-0.459l0.736,2.205c-0.554,0.461-1.38,0.828-2.666,0.828
			C314.458,460.473,313.263,459.186,313.263,456.979z"/>
		<path d="M321.167,443.373c0-1.01,0.828-1.838,1.747-1.838s1.838,0.828,1.838,1.838c0,1.012-0.826,1.748-1.838,1.748
			C321.901,445.121,321.167,444.385,321.167,443.373z M321.443,460.104v-13.328h2.941v13.328H321.443z"/>
		<path d="M328.797,460.104v-10.846h-2.205v-2.482h2.205v-0.736c0-2.848,1.655-4.596,4.229-4.596c1.194,0,2.39,0.277,3.219,1.193
			l-1.104,1.748c-0.367-0.367-0.921-0.551-1.471-0.551c-1.195,0-1.84,0.736-1.84,2.205v0.736h2.666v2.482h-2.666v10.846H328.797z"/>
		<path d="M336.519,462.77c0.275,0.186,0.734,0.186,1.104,0.186c0.919,0,1.562-0.277,1.93-1.197l0.645-1.562l-5.516-13.512h3.126
			l3.86,10.02l3.859-10.02h3.126l-6.434,15.719c-0.919,2.297-2.484,2.941-4.505,3.033c-0.461,0-1.287-0.092-1.654-0.184
			L336.519,462.77z"/>
	</g>
</g>
</svg>
